<mxfile host="app.diagrams.net" modified="2023-02-17T14:17:48.272Z" agent="5.0 (Windows NT 10.0; Win64; x64) AppleWebKit/537.36 (KHTML, like Gecko) Chrome/108.0.0.0 Safari/537.36 OPR/94.0.0.0" etag="27NzvAIT5OcsVoIfUT7q" version="20.8.20" type="github">
  <diagram name="Pagina-1" id="Od5rQJQjPuj7yA1Taq5u">
    <mxGraphModel dx="4643" dy="2527" grid="1" gridSize="10" guides="1" tooltips="1" connect="1" arrows="1" fold="1" page="1" pageScale="1" pageWidth="827" pageHeight="1169" math="0" shadow="0">
      <root>
        <mxCell id="0" />
        <mxCell id="1" parent="0" />
        <mxCell id="2zeZgPlk0j1N4isCJW94-1" value="&lt;h1&gt;Compra&lt;/h1&gt;&lt;p&gt;Metodo compra:&amp;nbsp;farà vedere una lista di piatti che puoi comprare stampando, nome prezzo (int) e ingredienti (minimo 2) e&amp;nbsp;darà la possibilità di comprarlo se il nostro budget&amp;nbsp;&lt;/p&gt;è sufficiente e la disponibilità qui non si vedrà." style="text;html=1;strokeColor=none;fillColor=none;spacing=5;spacingTop=-20;whiteSpace=wrap;overflow=hidden;rounded=0;" vertex="1" parent="1">
          <mxGeometry x="10" y="10" width="190" height="180" as="geometry" />
        </mxCell>
        <mxCell id="2zeZgPlk0j1N4isCJW94-37" value="" style="edgeStyle=orthogonalEdgeStyle;rounded=0;orthogonalLoop=1;jettySize=auto;html=1;fontSize=13;" edge="1" parent="1" source="2zeZgPlk0j1N4isCJW94-2" target="2zeZgPlk0j1N4isCJW94-36">
          <mxGeometry relative="1" as="geometry" />
        </mxCell>
        <mxCell id="2zeZgPlk0j1N4isCJW94-2" value="Inizializzazione" style="ellipse;whiteSpace=wrap;html=1;" vertex="1" parent="1">
          <mxGeometry x="330" y="55" width="120" height="80" as="geometry" />
        </mxCell>
        <mxCell id="2zeZgPlk0j1N4isCJW94-5" value="&lt;br&gt;&lt;span style=&quot;color: rgb(0, 0, 0); font-family: Helvetica; font-size: 13px; font-style: normal; font-variant-ligatures: normal; font-variant-caps: normal; font-weight: 400; letter-spacing: normal; orphans: 2; text-align: center; text-indent: 0px; text-transform: none; widows: 2; word-spacing: 0px; -webkit-text-stroke-width: 0px; background-color: rgb(251, 251, 251); text-decoration-thickness: initial; text-decoration-style: initial; text-decoration-color: initial; float: none; display: inline !important;&quot;&gt;Prende in input nome, prezzo, ingrediente, nIngrediente e budget&lt;/span&gt;&lt;br&gt;" style="shape=tape;whiteSpace=wrap;html=1;" vertex="1" parent="1">
          <mxGeometry x="510" y="40" width="200" height="110" as="geometry" />
        </mxCell>
        <mxCell id="2zeZgPlk0j1N4isCJW94-9" value="" style="edgeStyle=orthogonalEdgeStyle;rounded=0;orthogonalLoop=1;jettySize=auto;html=1;fontSize=13;" edge="1" parent="1" source="2zeZgPlk0j1N4isCJW94-6" target="2zeZgPlk0j1N4isCJW94-8">
          <mxGeometry relative="1" as="geometry" />
        </mxCell>
        <mxCell id="2zeZgPlk0j1N4isCJW94-6" value="Stampa nome" style="rounded=0;whiteSpace=wrap;html=1;fontSize=13;" vertex="1" parent="1">
          <mxGeometry x="1170" y="160" width="120" height="60" as="geometry" />
        </mxCell>
        <mxCell id="2zeZgPlk0j1N4isCJW94-15" style="edgeStyle=orthogonalEdgeStyle;rounded=0;orthogonalLoop=1;jettySize=auto;html=1;exitX=0.5;exitY=1;exitDx=0;exitDy=0;entryX=0.5;entryY=0;entryDx=0;entryDy=0;fontSize=13;" edge="1" parent="1" source="2zeZgPlk0j1N4isCJW94-8" target="2zeZgPlk0j1N4isCJW94-14">
          <mxGeometry relative="1" as="geometry" />
        </mxCell>
        <mxCell id="2zeZgPlk0j1N4isCJW94-8" value="Stampa prezzo" style="rounded=0;whiteSpace=wrap;html=1;fontSize=13;" vertex="1" parent="1">
          <mxGeometry x="1170" y="250" width="120" height="60" as="geometry" />
        </mxCell>
        <mxCell id="2zeZgPlk0j1N4isCJW94-18" style="edgeStyle=orthogonalEdgeStyle;rounded=0;orthogonalLoop=1;jettySize=auto;html=1;exitX=1;exitY=0.5;exitDx=0;exitDy=0;entryX=1;entryY=0.5;entryDx=0;entryDy=0;fontSize=13;" edge="1" parent="1" source="2zeZgPlk0j1N4isCJW94-10" target="2zeZgPlk0j1N4isCJW94-14">
          <mxGeometry relative="1" as="geometry">
            <Array as="points">
              <mxPoint x="1410" y="460" />
              <mxPoint x="1410" y="370" />
            </Array>
          </mxGeometry>
        </mxCell>
        <mxCell id="2zeZgPlk0j1N4isCJW94-32" style="edgeStyle=orthogonalEdgeStyle;rounded=0;orthogonalLoop=1;jettySize=auto;html=1;exitX=0.5;exitY=1;exitDx=0;exitDy=0;entryX=0.5;entryY=0;entryDx=0;entryDy=0;fontSize=13;" edge="1" parent="1" source="2zeZgPlk0j1N4isCJW94-10" target="2zeZgPlk0j1N4isCJW94-31">
          <mxGeometry relative="1" as="geometry" />
        </mxCell>
        <mxCell id="2zeZgPlk0j1N4isCJW94-10" value="Stampa ingrediente[nIngrediente]" style="rounded=0;whiteSpace=wrap;html=1;fontSize=13;" vertex="1" parent="1">
          <mxGeometry x="1140" y="430" width="180" height="60" as="geometry" />
        </mxCell>
        <mxCell id="2zeZgPlk0j1N4isCJW94-16" style="edgeStyle=orthogonalEdgeStyle;rounded=0;orthogonalLoop=1;jettySize=auto;html=1;exitX=0.5;exitY=1;exitDx=0;exitDy=0;entryX=0.5;entryY=0;entryDx=0;entryDy=0;fontSize=13;" edge="1" parent="1" source="2zeZgPlk0j1N4isCJW94-14" target="2zeZgPlk0j1N4isCJW94-10">
          <mxGeometry relative="1" as="geometry" />
        </mxCell>
        <mxCell id="2zeZgPlk0j1N4isCJW94-14" value="for i=0; i&amp;lt;nIngrediente; i++" style="rhombus;whiteSpace=wrap;html=1;fontSize=13;" vertex="1" parent="1">
          <mxGeometry x="1110" y="330" width="240" height="80" as="geometry" />
        </mxCell>
        <mxCell id="2zeZgPlk0j1N4isCJW94-23" value="&lt;h1&gt;MenuPiatto&lt;/h1&gt;&lt;p&gt;Il menù che verrà utilizzato per ogni piatto disponibile&lt;/p&gt;" style="text;html=1;strokeColor=none;fillColor=none;spacing=5;spacingTop=-20;whiteSpace=wrap;overflow=hidden;rounded=0;fontSize=13;" vertex="1" parent="1">
          <mxGeometry x="850" y="10" width="190" height="120" as="geometry" />
        </mxCell>
        <mxCell id="2zeZgPlk0j1N4isCJW94-27" style="edgeStyle=orthogonalEdgeStyle;rounded=0;orthogonalLoop=1;jettySize=auto;html=1;exitX=0.5;exitY=1;exitDx=0;exitDy=0;fontSize=13;" edge="1" parent="1" source="2zeZgPlk0j1N4isCJW94-26" target="2zeZgPlk0j1N4isCJW94-6">
          <mxGeometry relative="1" as="geometry" />
        </mxCell>
        <mxCell id="2zeZgPlk0j1N4isCJW94-26" value="Inizializzazione" style="ellipse;whiteSpace=wrap;html=1;" vertex="1" parent="1">
          <mxGeometry x="1170" y="40" width="120" height="80" as="geometry" />
        </mxCell>
        <mxCell id="2zeZgPlk0j1N4isCJW94-28" value="&lt;br&gt;&lt;span style=&quot;color: rgb(0, 0, 0); font-family: Helvetica; font-size: 13px; font-style: normal; font-variant-ligatures: normal; font-variant-caps: normal; font-weight: 400; letter-spacing: normal; orphans: 2; text-align: center; text-indent: 0px; text-transform: none; widows: 2; word-spacing: 0px; -webkit-text-stroke-width: 0px; background-color: rgb(251, 251, 251); text-decoration-thickness: initial; text-decoration-style: initial; text-decoration-color: initial; float: none; display: inline !important;&quot;&gt;Prende in input nome, prezzo, ingrediente[i][ningrediente], nIngrediente&lt;/span&gt;&lt;br&gt;" style="shape=tape;whiteSpace=wrap;html=1;" vertex="1" parent="1">
          <mxGeometry x="1330" y="20" width="210" height="120" as="geometry" />
        </mxCell>
        <mxCell id="2zeZgPlk0j1N4isCJW94-31" value="FINE" style="ellipse;whiteSpace=wrap;html=1;fontSize=13;rounded=0;" vertex="1" parent="1">
          <mxGeometry x="1150" y="520" width="150" height="80" as="geometry" />
        </mxCell>
        <mxCell id="2zeZgPlk0j1N4isCJW94-35" value="&lt;br&gt;&lt;span style=&quot;font-size: 13px;&quot;&gt;Non restituisce niente&lt;/span&gt;" style="shape=tape;whiteSpace=wrap;html=1;" vertex="1" parent="1">
          <mxGeometry x="1320" y="515" width="140" height="90" as="geometry" />
        </mxCell>
        <mxCell id="2zeZgPlk0j1N4isCJW94-40" value="" style="edgeStyle=orthogonalEdgeStyle;rounded=0;orthogonalLoop=1;jettySize=auto;html=1;fontSize=13;" edge="1" parent="1" source="2zeZgPlk0j1N4isCJW94-36" target="2zeZgPlk0j1N4isCJW94-39">
          <mxGeometry relative="1" as="geometry" />
        </mxCell>
        <mxCell id="2zeZgPlk0j1N4isCJW94-36" value="Output intestazione menu" style="whiteSpace=wrap;html=1;" vertex="1" parent="1">
          <mxGeometry x="330" y="160" width="120" height="60" as="geometry" />
        </mxCell>
        <mxCell id="2zeZgPlk0j1N4isCJW94-99" style="edgeStyle=orthogonalEdgeStyle;rounded=0;orthogonalLoop=1;jettySize=auto;html=1;exitX=0.5;exitY=1;exitDx=0;exitDy=0;entryX=0.5;entryY=0;entryDx=0;entryDy=0;fontSize=13;" edge="1" parent="1" source="2zeZgPlk0j1N4isCJW94-39" target="2zeZgPlk0j1N4isCJW94-44">
          <mxGeometry relative="1" as="geometry" />
        </mxCell>
        <mxCell id="2zeZgPlk0j1N4isCJW94-39" value="for i=0; i&amp;lt;nPiatti; i++" style="rhombus;whiteSpace=wrap;html=1;" vertex="1" parent="1">
          <mxGeometry x="295" y="240" width="190" height="80" as="geometry" />
        </mxCell>
        <mxCell id="2zeZgPlk0j1N4isCJW94-66" style="edgeStyle=orthogonalEdgeStyle;rounded=0;orthogonalLoop=1;jettySize=auto;html=1;exitX=0.5;exitY=1;exitDx=0;exitDy=0;entryX=0.5;entryY=0;entryDx=0;entryDy=0;fontSize=13;" edge="1" parent="1" source="2zeZgPlk0j1N4isCJW94-44" target="2zeZgPlk0j1N4isCJW94-65">
          <mxGeometry relative="1" as="geometry" />
        </mxCell>
        <mxCell id="2zeZgPlk0j1N4isCJW94-100" style="edgeStyle=orthogonalEdgeStyle;rounded=0;orthogonalLoop=1;jettySize=auto;html=1;exitX=1;exitY=0.5;exitDx=0;exitDy=0;entryX=1;entryY=0.5;entryDx=0;entryDy=0;fontSize=13;" edge="1" parent="1" source="2zeZgPlk0j1N4isCJW94-44" target="2zeZgPlk0j1N4isCJW94-39">
          <mxGeometry relative="1" as="geometry">
            <Array as="points">
              <mxPoint x="550" y="390" />
              <mxPoint x="550" y="280" />
            </Array>
          </mxGeometry>
        </mxCell>
        <mxCell id="2zeZgPlk0j1N4isCJW94-44" value="MenuPiatto(nome[i], prezzo[i], ingrediente1[i][nIngrediente]" style="whiteSpace=wrap;html=1;" vertex="1" parent="1">
          <mxGeometry x="320" y="350" width="140" height="80" as="geometry" />
        </mxCell>
        <mxCell id="2zeZgPlk0j1N4isCJW94-64" value="" style="edgeStyle=orthogonalEdgeStyle;rounded=0;orthogonalLoop=1;jettySize=auto;html=1;fontSize=13;" edge="1" parent="1" source="2zeZgPlk0j1N4isCJW94-58" target="2zeZgPlk0j1N4isCJW94-63">
          <mxGeometry relative="1" as="geometry">
            <Array as="points">
              <mxPoint x="410" y="790" />
            </Array>
          </mxGeometry>
        </mxCell>
        <mxCell id="2zeZgPlk0j1N4isCJW94-109" style="edgeStyle=orthogonalEdgeStyle;rounded=0;orthogonalLoop=1;jettySize=auto;html=1;exitX=1;exitY=0.5;exitDx=0;exitDy=0;entryX=0.5;entryY=0;entryDx=0;entryDy=0;fontSize=13;" edge="1" parent="1" source="2zeZgPlk0j1N4isCJW94-58" target="2zeZgPlk0j1N4isCJW94-108">
          <mxGeometry relative="1" as="geometry" />
        </mxCell>
        <mxCell id="2zeZgPlk0j1N4isCJW94-58" value="IF budget&amp;lt;prezzo" style="rhombus;whiteSpace=wrap;html=1;" vertex="1" parent="1">
          <mxGeometry x="445" y="750" width="170" height="80" as="geometry" />
        </mxCell>
        <mxCell id="2zeZgPlk0j1N4isCJW94-116" style="edgeStyle=orthogonalEdgeStyle;rounded=0;orthogonalLoop=1;jettySize=auto;html=1;exitX=0.5;exitY=1;exitDx=0;exitDy=0;fontSize=13;" edge="1" parent="1" source="2zeZgPlk0j1N4isCJW94-63" target="2zeZgPlk0j1N4isCJW94-77">
          <mxGeometry relative="1" as="geometry" />
        </mxCell>
        <mxCell id="2zeZgPlk0j1N4isCJW94-63" value="Non puoi acquistare il prodotto" style="whiteSpace=wrap;html=1;" vertex="1" parent="1">
          <mxGeometry x="343" y="850" width="120" height="60" as="geometry" />
        </mxCell>
        <mxCell id="2zeZgPlk0j1N4isCJW94-68" style="edgeStyle=orthogonalEdgeStyle;rounded=0;orthogonalLoop=1;jettySize=auto;html=1;exitX=0.5;exitY=1;exitDx=0;exitDy=0;entryX=0.5;entryY=0;entryDx=0;entryDy=0;fontSize=13;" edge="1" parent="1" source="2zeZgPlk0j1N4isCJW94-65" target="2zeZgPlk0j1N4isCJW94-67">
          <mxGeometry relative="1" as="geometry" />
        </mxCell>
        <mxCell id="2zeZgPlk0j1N4isCJW94-65" value="DO" style="rhombus;whiteSpace=wrap;html=1;fontSize=13;" vertex="1" parent="1">
          <mxGeometry x="280" y="490" width="210" height="80" as="geometry" />
        </mxCell>
        <mxCell id="2zeZgPlk0j1N4isCJW94-71" style="edgeStyle=orthogonalEdgeStyle;rounded=0;orthogonalLoop=1;jettySize=auto;html=1;exitX=0.5;exitY=1;exitDx=0;exitDy=0;entryX=0.5;entryY=0;entryDx=0;entryDy=0;fontSize=13;" edge="1" parent="1" source="2zeZgPlk0j1N4isCJW94-67" target="2zeZgPlk0j1N4isCJW94-70">
          <mxGeometry relative="1" as="geometry" />
        </mxCell>
        <mxCell id="2zeZgPlk0j1N4isCJW94-67" value="Richiesta acquisto prodotto" style="rounded=0;whiteSpace=wrap;html=1;fontSize=13;" vertex="1" parent="1">
          <mxGeometry x="325" y="590" width="120" height="60" as="geometry" />
        </mxCell>
        <mxCell id="2zeZgPlk0j1N4isCJW94-72" style="edgeStyle=orthogonalEdgeStyle;rounded=0;orthogonalLoop=1;jettySize=auto;html=1;exitX=1;exitY=0.5;exitDx=0;exitDy=0;entryX=0.5;entryY=0;entryDx=0;entryDy=0;fontSize=13;" edge="1" parent="1" source="2zeZgPlk0j1N4isCJW94-70" target="2zeZgPlk0j1N4isCJW94-58">
          <mxGeometry relative="1" as="geometry" />
        </mxCell>
        <mxCell id="2zeZgPlk0j1N4isCJW94-76" value="" style="edgeStyle=orthogonalEdgeStyle;rounded=0;orthogonalLoop=1;jettySize=auto;html=1;fontSize=13;entryX=0;entryY=0.5;entryDx=0;entryDy=0;" edge="1" parent="1" source="2zeZgPlk0j1N4isCJW94-70" target="2zeZgPlk0j1N4isCJW94-77">
          <mxGeometry relative="1" as="geometry">
            <mxPoint x="130" y="1000" as="targetPoint" />
            <Array as="points">
              <mxPoint x="240" y="710" />
              <mxPoint x="240" y="1000" />
            </Array>
          </mxGeometry>
        </mxCell>
        <mxCell id="2zeZgPlk0j1N4isCJW94-70" value="If risposta == affermativa" style="rhombus;whiteSpace=wrap;html=1;fontSize=13;" vertex="1" parent="1">
          <mxGeometry x="265" y="670" width="240" height="80" as="geometry" />
        </mxCell>
        <mxCell id="2zeZgPlk0j1N4isCJW94-84" style="edgeStyle=orthogonalEdgeStyle;rounded=0;orthogonalLoop=1;jettySize=auto;html=1;exitX=0.5;exitY=1;exitDx=0;exitDy=0;entryX=1;entryY=0.5;entryDx=0;entryDy=0;fontSize=13;" edge="1" parent="1" source="2zeZgPlk0j1N4isCJW94-77" target="2zeZgPlk0j1N4isCJW94-65">
          <mxGeometry relative="1" as="geometry">
            <Array as="points">
              <mxPoint x="450" y="1060" />
              <mxPoint x="770" y="1060" />
              <mxPoint x="770" y="530" />
            </Array>
          </mxGeometry>
        </mxCell>
        <mxCell id="2zeZgPlk0j1N4isCJW94-88" value="" style="edgeStyle=orthogonalEdgeStyle;rounded=0;orthogonalLoop=1;jettySize=auto;html=1;fontSize=13;" edge="1" parent="1" source="2zeZgPlk0j1N4isCJW94-77" target="2zeZgPlk0j1N4isCJW94-87">
          <mxGeometry relative="1" as="geometry" />
        </mxCell>
        <mxCell id="2zeZgPlk0j1N4isCJW94-77" value="while risposta esci&amp;nbsp;" style="rhombus;whiteSpace=wrap;html=1;fontSize=13;" vertex="1" parent="1">
          <mxGeometry x="370" y="960" width="160" height="80" as="geometry" />
        </mxCell>
        <mxCell id="2zeZgPlk0j1N4isCJW94-79" value="true" style="text;html=1;strokeColor=none;fillColor=none;align=center;verticalAlign=middle;whiteSpace=wrap;rounded=0;fontSize=13;" vertex="1" parent="1">
          <mxGeometry x="505" y="670" width="60" height="30" as="geometry" />
        </mxCell>
        <mxCell id="2zeZgPlk0j1N4isCJW94-80" value="true" style="text;html=1;strokeColor=none;fillColor=none;align=center;verticalAlign=middle;whiteSpace=wrap;rounded=0;fontSize=13;" vertex="1" parent="1">
          <mxGeometry x="620" y="750" width="60" height="30" as="geometry" />
        </mxCell>
        <mxCell id="2zeZgPlk0j1N4isCJW94-81" value="false" style="text;html=1;strokeColor=none;fillColor=none;align=center;verticalAlign=middle;whiteSpace=wrap;rounded=0;fontSize=13;" vertex="1" parent="1">
          <mxGeometry x="220" y="670" width="60" height="30" as="geometry" />
        </mxCell>
        <mxCell id="2zeZgPlk0j1N4isCJW94-82" value="false" style="text;html=1;strokeColor=none;fillColor=none;align=center;verticalAlign=middle;whiteSpace=wrap;rounded=0;fontSize=13;" vertex="1" parent="1">
          <mxGeometry x="330" y="800" width="60" height="30" as="geometry" />
        </mxCell>
        <mxCell id="2zeZgPlk0j1N4isCJW94-87" value="FINE" style="ellipse;whiteSpace=wrap;html=1;fontSize=13;" vertex="1" parent="1">
          <mxGeometry x="410" y="1070" width="80" height="80" as="geometry" />
        </mxCell>
        <mxCell id="2zeZgPlk0j1N4isCJW94-89" value="&lt;h1&gt;Vedi&lt;/h1&gt;&lt;div&gt;stamperà la lista piatti e le loro disponibilità. Una volta finito un piatto dovrà non essere più ordinabile&lt;/div&gt;" style="text;html=1;strokeColor=none;fillColor=none;spacing=5;spacingTop=-20;whiteSpace=wrap;overflow=hidden;rounded=0;fontSize=13;" vertex="1" parent="1">
          <mxGeometry x="10" y="1190" width="190" height="120" as="geometry" />
        </mxCell>
        <mxCell id="2zeZgPlk0j1N4isCJW94-102" style="edgeStyle=orthogonalEdgeStyle;rounded=0;orthogonalLoop=1;jettySize=auto;html=1;exitX=0.5;exitY=1;exitDx=0;exitDy=0;entryX=0.5;entryY=0;entryDx=0;entryDy=0;fontSize=13;" edge="1" parent="1" source="2zeZgPlk0j1N4isCJW94-90" target="2zeZgPlk0j1N4isCJW94-101">
          <mxGeometry relative="1" as="geometry" />
        </mxCell>
        <mxCell id="2zeZgPlk0j1N4isCJW94-90" value="Inizializzazione" style="ellipse;whiteSpace=wrap;html=1;fontSize=13;" vertex="1" parent="1">
          <mxGeometry x="354" y="1210" width="120" height="80" as="geometry" />
        </mxCell>
        <mxCell id="2zeZgPlk0j1N4isCJW94-97" style="edgeStyle=orthogonalEdgeStyle;rounded=0;orthogonalLoop=1;jettySize=auto;html=1;exitX=0.5;exitY=1;exitDx=0;exitDy=0;fontSize=13;" edge="1" parent="1" source="2zeZgPlk0j1N4isCJW94-92" target="2zeZgPlk0j1N4isCJW94-96">
          <mxGeometry relative="1" as="geometry" />
        </mxCell>
        <mxCell id="2zeZgPlk0j1N4isCJW94-92" value="MenuPiatto(nome[i], prezzo[i], ingrediente1[i][nIngrediente]" style="whiteSpace=wrap;html=1;" vertex="1" parent="1">
          <mxGeometry x="343" y="1400" width="140" height="80" as="geometry" />
        </mxCell>
        <mxCell id="2zeZgPlk0j1N4isCJW94-93" value="&lt;br&gt;&lt;span style=&quot;color: rgb(0, 0, 0); font-family: Helvetica; font-size: 13px; font-style: normal; font-variant-ligatures: normal; font-variant-caps: normal; font-weight: 400; letter-spacing: normal; orphans: 2; text-align: center; text-indent: 0px; text-transform: none; widows: 2; word-spacing: 0px; -webkit-text-stroke-width: 0px; background-color: rgb(251, 251, 251); text-decoration-thickness: initial; text-decoration-style: initial; text-decoration-color: initial; float: none; display: inline !important;&quot;&gt;Prende in input nome, prezzo, ingrediente, nIngrediente e disponibilità, numero piatti&lt;/span&gt;" style="shape=tape;whiteSpace=wrap;html=1;" vertex="1" parent="1">
          <mxGeometry x="570" y="1190" width="200" height="110" as="geometry" />
        </mxCell>
        <mxCell id="2zeZgPlk0j1N4isCJW94-105" style="edgeStyle=orthogonalEdgeStyle;rounded=0;orthogonalLoop=1;jettySize=auto;html=1;exitX=1;exitY=0.5;exitDx=0;exitDy=0;entryX=1;entryY=0.5;entryDx=0;entryDy=0;fontSize=13;" edge="1" parent="1" source="2zeZgPlk0j1N4isCJW94-96" target="2zeZgPlk0j1N4isCJW94-101">
          <mxGeometry relative="1" as="geometry">
            <Array as="points">
              <mxPoint x="570" y="1550" />
              <mxPoint x="570" y="1340" />
            </Array>
          </mxGeometry>
        </mxCell>
        <mxCell id="2zeZgPlk0j1N4isCJW94-122" value="" style="edgeStyle=orthogonalEdgeStyle;rounded=0;orthogonalLoop=1;jettySize=auto;html=1;fontSize=13;" edge="1" parent="1" source="2zeZgPlk0j1N4isCJW94-96" target="2zeZgPlk0j1N4isCJW94-121">
          <mxGeometry relative="1" as="geometry" />
        </mxCell>
        <mxCell id="2zeZgPlk0j1N4isCJW94-96" value="Stampa disponibilità piatto" style="rounded=0;whiteSpace=wrap;html=1;fontSize=13;" vertex="1" parent="1">
          <mxGeometry x="353" y="1520" width="120" height="60" as="geometry" />
        </mxCell>
        <mxCell id="2zeZgPlk0j1N4isCJW94-104" style="edgeStyle=orthogonalEdgeStyle;rounded=0;orthogonalLoop=1;jettySize=auto;html=1;exitX=0.5;exitY=1;exitDx=0;exitDy=0;entryX=0.5;entryY=0;entryDx=0;entryDy=0;fontSize=13;" edge="1" parent="1" source="2zeZgPlk0j1N4isCJW94-101" target="2zeZgPlk0j1N4isCJW94-92">
          <mxGeometry relative="1" as="geometry" />
        </mxCell>
        <mxCell id="2zeZgPlk0j1N4isCJW94-101" value="for i=0; i&amp;lt;nPiatti; i++" style="rhombus;whiteSpace=wrap;html=1;" vertex="1" parent="1">
          <mxGeometry x="320" y="1300" width="190" height="80" as="geometry" />
        </mxCell>
        <mxCell id="2zeZgPlk0j1N4isCJW94-113" style="edgeStyle=orthogonalEdgeStyle;rounded=0;orthogonalLoop=1;jettySize=auto;html=1;exitX=0;exitY=0.5;exitDx=0;exitDy=0;fontSize=13;" edge="1" parent="1" source="2zeZgPlk0j1N4isCJW94-108" target="2zeZgPlk0j1N4isCJW94-112">
          <mxGeometry relative="1" as="geometry" />
        </mxCell>
        <mxCell id="2zeZgPlk0j1N4isCJW94-115" style="edgeStyle=orthogonalEdgeStyle;rounded=0;orthogonalLoop=1;jettySize=auto;html=1;exitX=1;exitY=0.5;exitDx=0;exitDy=0;entryX=0.833;entryY=0;entryDx=0;entryDy=0;entryPerimeter=0;fontSize=13;" edge="1" parent="1" source="2zeZgPlk0j1N4isCJW94-108" target="2zeZgPlk0j1N4isCJW94-114">
          <mxGeometry relative="1" as="geometry" />
        </mxCell>
        <mxCell id="2zeZgPlk0j1N4isCJW94-108" value="IF disponibilitàPiatto==0" style="rhombus;whiteSpace=wrap;html=1;" vertex="1" parent="1">
          <mxGeometry x="540" y="820" width="170" height="80" as="geometry" />
        </mxCell>
        <mxCell id="2zeZgPlk0j1N4isCJW94-117" style="edgeStyle=orthogonalEdgeStyle;rounded=0;orthogonalLoop=1;jettySize=auto;html=1;exitX=0.5;exitY=1;exitDx=0;exitDy=0;fontSize=13;" edge="1" parent="1" source="2zeZgPlk0j1N4isCJW94-112">
          <mxGeometry relative="1" as="geometry">
            <mxPoint x="450" y="960.1304347826087" as="targetPoint" />
            <Array as="points">
              <mxPoint x="490" y="960" />
              <mxPoint x="490" y="960" />
            </Array>
          </mxGeometry>
        </mxCell>
        <mxCell id="2zeZgPlk0j1N4isCJW94-112" value="Prodotto terminato" style="whiteSpace=wrap;html=1;" vertex="1" parent="1">
          <mxGeometry x="470" y="900" width="120" height="60" as="geometry" />
        </mxCell>
        <mxCell id="2zeZgPlk0j1N4isCJW94-118" style="edgeStyle=orthogonalEdgeStyle;rounded=0;orthogonalLoop=1;jettySize=auto;html=1;exitX=0.5;exitY=1;exitDx=0;exitDy=0;entryX=1;entryY=0.5;entryDx=0;entryDy=0;fontSize=13;" edge="1" parent="1" source="2zeZgPlk0j1N4isCJW94-114" target="2zeZgPlk0j1N4isCJW94-77">
          <mxGeometry relative="1" as="geometry">
            <Array as="points">
              <mxPoint x="690" y="1000" />
            </Array>
          </mxGeometry>
        </mxCell>
        <mxCell id="2zeZgPlk0j1N4isCJW94-114" value="Hai acquistato il prodotto" style="whiteSpace=wrap;html=1;" vertex="1" parent="1">
          <mxGeometry x="630" y="930" width="120" height="60" as="geometry" />
        </mxCell>
        <mxCell id="2zeZgPlk0j1N4isCJW94-121" value="FINE" style="ellipse;whiteSpace=wrap;html=1;fontSize=13;rounded=0;" vertex="1" parent="1">
          <mxGeometry x="373" y="1650" width="80" height="80" as="geometry" />
        </mxCell>
        <mxCell id="2zeZgPlk0j1N4isCJW94-123" value="&lt;h1&gt;Aggiungi&lt;/h1&gt;&lt;p&gt;Se si conosce una password, si avranno due scelte, resettare disponibilità che mette tutte le disponibilità come all&#39; inizio, e aggiungi piatto&lt;/p&gt;" style="text;html=1;strokeColor=none;fillColor=none;spacing=5;spacingTop=-20;whiteSpace=wrap;overflow=hidden;rounded=0;fontSize=13;" vertex="1" parent="1">
          <mxGeometry x="850" y="1190" width="190" height="140" as="geometry" />
        </mxCell>
        <mxCell id="2zeZgPlk0j1N4isCJW94-126" value="" style="edgeStyle=orthogonalEdgeStyle;rounded=0;orthogonalLoop=1;jettySize=auto;html=1;fontSize=13;" edge="1" parent="1" source="2zeZgPlk0j1N4isCJW94-124" target="2zeZgPlk0j1N4isCJW94-125">
          <mxGeometry relative="1" as="geometry" />
        </mxCell>
        <mxCell id="2zeZgPlk0j1N4isCJW94-124" value="Inizializzazione" style="ellipse;whiteSpace=wrap;html=1;fontSize=13;" vertex="1" parent="1">
          <mxGeometry x="1140" y="1210" width="120" height="80" as="geometry" />
        </mxCell>
        <mxCell id="2zeZgPlk0j1N4isCJW94-129" value="" style="edgeStyle=orthogonalEdgeStyle;rounded=0;orthogonalLoop=1;jettySize=auto;html=1;fontSize=13;" edge="1" parent="1" source="2zeZgPlk0j1N4isCJW94-125" target="2zeZgPlk0j1N4isCJW94-128">
          <mxGeometry relative="1" as="geometry" />
        </mxCell>
        <mxCell id="2zeZgPlk0j1N4isCJW94-125" value="Richiesta inserimento password" style="whiteSpace=wrap;html=1;fontSize=13;" vertex="1" parent="1">
          <mxGeometry x="1140" y="1340" width="120" height="60" as="geometry" />
        </mxCell>
        <mxCell id="2zeZgPlk0j1N4isCJW94-130" style="edgeStyle=orthogonalEdgeStyle;rounded=0;orthogonalLoop=1;jettySize=auto;html=1;exitX=0;exitY=0.5;exitDx=0;exitDy=0;fontSize=13;" edge="1" parent="1" source="2zeZgPlk0j1N4isCJW94-128">
          <mxGeometry relative="1" as="geometry">
            <mxPoint x="940" y="1640" as="targetPoint" />
          </mxGeometry>
        </mxCell>
        <mxCell id="2zeZgPlk0j1N4isCJW94-147" style="edgeStyle=orthogonalEdgeStyle;rounded=0;orthogonalLoop=1;jettySize=auto;html=1;exitX=1;exitY=0.5;exitDx=0;exitDy=0;entryX=0.5;entryY=0;entryDx=0;entryDy=0;fontSize=13;" edge="1" parent="1" source="2zeZgPlk0j1N4isCJW94-128" target="2zeZgPlk0j1N4isCJW94-145">
          <mxGeometry relative="1" as="geometry" />
        </mxCell>
        <mxCell id="2zeZgPlk0j1N4isCJW94-128" value="IF password == passwordImpostata" style="rhombus;whiteSpace=wrap;html=1;fontSize=13;" vertex="1" parent="1">
          <mxGeometry x="1085" y="1430" width="230" height="80" as="geometry" />
        </mxCell>
        <mxCell id="2zeZgPlk0j1N4isCJW94-132" value="true" style="text;html=1;strokeColor=none;fillColor=none;align=center;verticalAlign=middle;whiteSpace=wrap;rounded=0;fontSize=13;" vertex="1" parent="1">
          <mxGeometry x="1360" y="1420" width="60" height="30" as="geometry" />
        </mxCell>
        <mxCell id="2zeZgPlk0j1N4isCJW94-133" value="false" style="text;html=1;strokeColor=none;fillColor=none;align=center;verticalAlign=middle;whiteSpace=wrap;rounded=0;fontSize=13;" vertex="1" parent="1">
          <mxGeometry x="960" y="1420" width="60" height="30" as="geometry" />
        </mxCell>
        <mxCell id="2zeZgPlk0j1N4isCJW94-138" value="" style="edgeStyle=orthogonalEdgeStyle;rounded=0;orthogonalLoop=1;jettySize=auto;html=1;fontSize=13;" edge="1" parent="1" source="2zeZgPlk0j1N4isCJW94-136" target="2zeZgPlk0j1N4isCJW94-137">
          <mxGeometry relative="1" as="geometry" />
        </mxCell>
        <mxCell id="2zeZgPlk0j1N4isCJW94-136" value="Richiesta scelta" style="rounded=0;whiteSpace=wrap;html=1;fontSize=13;" vertex="1" parent="1">
          <mxGeometry x="1286" y="1620" width="120" height="60" as="geometry" />
        </mxCell>
        <mxCell id="2zeZgPlk0j1N4isCJW94-142" style="edgeStyle=orthogonalEdgeStyle;rounded=0;orthogonalLoop=1;jettySize=auto;html=1;exitX=1;exitY=0.5;exitDx=0;exitDy=0;entryX=0.5;entryY=0;entryDx=0;entryDy=0;fontSize=13;" edge="1" parent="1" source="2zeZgPlk0j1N4isCJW94-137" target="2zeZgPlk0j1N4isCJW94-141">
          <mxGeometry relative="1" as="geometry" />
        </mxCell>
        <mxCell id="2zeZgPlk0j1N4isCJW94-144" value="" style="edgeStyle=orthogonalEdgeStyle;rounded=0;orthogonalLoop=1;jettySize=auto;html=1;fontSize=13;" edge="1" parent="1" source="2zeZgPlk0j1N4isCJW94-137" target="2zeZgPlk0j1N4isCJW94-136">
          <mxGeometry relative="1" as="geometry" />
        </mxCell>
        <mxCell id="2zeZgPlk0j1N4isCJW94-151" style="edgeStyle=orthogonalEdgeStyle;rounded=0;orthogonalLoop=1;jettySize=auto;html=1;exitX=0;exitY=0.5;exitDx=0;exitDy=0;fontSize=13;" edge="1" parent="1" source="2zeZgPlk0j1N4isCJW94-137" target="2zeZgPlk0j1N4isCJW94-150">
          <mxGeometry relative="1" as="geometry" />
        </mxCell>
        <mxCell id="2zeZgPlk0j1N4isCJW94-137" value="IF scelta = resetta" style="rhombus;whiteSpace=wrap;html=1;fontSize=13;rounded=0;" vertex="1" parent="1">
          <mxGeometry x="1241" y="1720" width="210" height="80" as="geometry" />
        </mxCell>
        <mxCell id="2zeZgPlk0j1N4isCJW94-141" value="disponibilità == disponibilità iniziale" style="whiteSpace=wrap;html=1;fontSize=13;rounded=0;" vertex="1" parent="1">
          <mxGeometry x="1446" y="1800" width="120" height="60" as="geometry" />
        </mxCell>
        <mxCell id="2zeZgPlk0j1N4isCJW94-148" style="edgeStyle=orthogonalEdgeStyle;rounded=0;orthogonalLoop=1;jettySize=auto;html=1;exitX=0.5;exitY=1;exitDx=0;exitDy=0;entryX=0.5;entryY=0;entryDx=0;entryDy=0;fontSize=13;" edge="1" parent="1" source="2zeZgPlk0j1N4isCJW94-145" target="2zeZgPlk0j1N4isCJW94-136">
          <mxGeometry relative="1" as="geometry" />
        </mxCell>
        <mxCell id="2zeZgPlk0j1N4isCJW94-145" value="DO" style="rhombus;whiteSpace=wrap;html=1;fontSize=13;" vertex="1" parent="1">
          <mxGeometry x="1270" y="1500" width="165" height="80" as="geometry" />
        </mxCell>
        <mxCell id="2zeZgPlk0j1N4isCJW94-161" style="edgeStyle=orthogonalEdgeStyle;rounded=0;orthogonalLoop=1;jettySize=auto;html=1;exitX=1;exitY=0.5;exitDx=0;exitDy=0;fontSize=13;" edge="1" parent="1" source="2zeZgPlk0j1N4isCJW94-150" target="2zeZgPlk0j1N4isCJW94-160">
          <mxGeometry relative="1" as="geometry" />
        </mxCell>
        <mxCell id="2zeZgPlk0j1N4isCJW94-167" style="edgeStyle=orthogonalEdgeStyle;rounded=0;orthogonalLoop=1;jettySize=auto;html=1;exitX=0;exitY=0.5;exitDx=0;exitDy=0;entryX=0;entryY=0.5;entryDx=0;entryDy=0;fontSize=13;" edge="1" parent="1" source="2zeZgPlk0j1N4isCJW94-150" target="2zeZgPlk0j1N4isCJW94-166">
          <mxGeometry relative="1" as="geometry" />
        </mxCell>
        <mxCell id="2zeZgPlk0j1N4isCJW94-150" value="IF scelta == aggiungi" style="rhombus;whiteSpace=wrap;html=1;fontSize=13;" vertex="1" parent="1">
          <mxGeometry x="1120" y="1790" width="140" height="80" as="geometry" />
        </mxCell>
        <mxCell id="2zeZgPlk0j1N4isCJW94-154" value="true" style="text;html=1;strokeColor=none;fillColor=none;align=center;verticalAlign=middle;whiteSpace=wrap;rounded=0;fontSize=13;" vertex="1" parent="1">
          <mxGeometry x="1446" y="1724" width="60" height="30" as="geometry" />
        </mxCell>
        <mxCell id="2zeZgPlk0j1N4isCJW94-155" value="true" style="text;html=1;strokeColor=none;fillColor=none;align=center;verticalAlign=middle;whiteSpace=wrap;rounded=0;fontSize=13;" vertex="1" parent="1">
          <mxGeometry x="1255" y="1790" width="60" height="30" as="geometry" />
        </mxCell>
        <mxCell id="2zeZgPlk0j1N4isCJW94-156" value="false" style="text;html=1;strokeColor=none;fillColor=none;align=center;verticalAlign=middle;whiteSpace=wrap;rounded=0;fontSize=13;" vertex="1" parent="1">
          <mxGeometry x="1040" y="1790" width="60" height="30" as="geometry" />
        </mxCell>
        <mxCell id="2zeZgPlk0j1N4isCJW94-157" value="false" style="text;html=1;strokeColor=none;fillColor=none;align=center;verticalAlign=middle;whiteSpace=wrap;rounded=0;fontSize=13;" vertex="1" parent="1">
          <mxGeometry x="1181" y="1724" width="60" height="30" as="geometry" />
        </mxCell>
        <mxCell id="2zeZgPlk0j1N4isCJW94-164" value="" style="edgeStyle=orthogonalEdgeStyle;rounded=0;orthogonalLoop=1;jettySize=auto;html=1;fontSize=13;" edge="1" parent="1" source="2zeZgPlk0j1N4isCJW94-160" target="2zeZgPlk0j1N4isCJW94-163">
          <mxGeometry relative="1" as="geometry" />
        </mxCell>
        <mxCell id="2zeZgPlk0j1N4isCJW94-160" value="nPiatti ++" style="rounded=0;whiteSpace=wrap;html=1;fontSize=13;" vertex="1" parent="1">
          <mxGeometry x="1240" y="1870" width="120" height="60" as="geometry" />
        </mxCell>
        <mxCell id="2zeZgPlk0j1N4isCJW94-163" value="Richiesta inserimento dati" style="rounded=0;whiteSpace=wrap;html=1;fontSize=13;" vertex="1" parent="1">
          <mxGeometry x="1240" y="1960" width="120" height="60" as="geometry" />
        </mxCell>
        <mxCell id="2zeZgPlk0j1N4isCJW94-168" style="edgeStyle=orthogonalEdgeStyle;rounded=0;orthogonalLoop=1;jettySize=auto;html=1;exitX=1;exitY=0.5;exitDx=0;exitDy=0;entryX=1;entryY=0.5;entryDx=0;entryDy=0;fontSize=13;" edge="1" parent="1" source="2zeZgPlk0j1N4isCJW94-166" target="2zeZgPlk0j1N4isCJW94-136">
          <mxGeometry relative="1" as="geometry">
            <Array as="points">
              <mxPoint x="1620" y="2150" />
              <mxPoint x="1620" y="1650" />
            </Array>
          </mxGeometry>
        </mxCell>
        <mxCell id="2zeZgPlk0j1N4isCJW94-171" value="" style="edgeStyle=orthogonalEdgeStyle;rounded=0;orthogonalLoop=1;jettySize=auto;html=1;fontSize=13;" edge="1" parent="1" source="2zeZgPlk0j1N4isCJW94-166" target="2zeZgPlk0j1N4isCJW94-170">
          <mxGeometry relative="1" as="geometry" />
        </mxCell>
        <mxCell id="2zeZgPlk0j1N4isCJW94-166" value="While risposta == resetta || risposta == aggiungi" style="rhombus;whiteSpace=wrap;html=1;fontSize=13;" vertex="1" parent="1">
          <mxGeometry x="1240" y="2110" width="244" height="80" as="geometry" />
        </mxCell>
        <mxCell id="2zeZgPlk0j1N4isCJW94-170" value="FINE" style="ellipse;whiteSpace=wrap;html=1;fontSize=13;" vertex="1" parent="1">
          <mxGeometry x="1322" y="2220" width="80" height="80" as="geometry" />
        </mxCell>
      </root>
    </mxGraphModel>
  </diagram>
</mxfile>
